<svg xmlns="http://www.w3.org/2000/svg" viewBox="0 0 19.52 19.51"><title>Asset 1=</title><g id="Layer_2" data-name="Layer 2"><g id="Layer_1-2" data-name="Layer 1"><path d="M10.34,9.84a.75.75,0,0,0,.53-.22l7.06-7.06V6.21a.75.75,0,1,0,1.5,0V.75A.76.76,0,0,0,18.68,0H13.22a.76.76,0,0,0-.75.75.76.76,0,0,0,.75.75h3.65L9.76,8.56a.75.75,0,0,0,.53,1.28Z"/><path d="M18.76,10.56a.76.76,0,0,0-.75.75v6.2a.49.49,0,0,1-.49.49H2a.49.49,0,0,1-.49-.49V2A.49.49,0,0,1,2,1.5H7.87A.76.76,0,0,0,8.62.75.76.76,0,0,0,7.87,0H2A2,2,0,0,0,0,2H0V17.51a2,2,0,0,0,2,2H17.52a2,2,0,0,0,2-2v-6.2a.76.76,0,0,0-.75-.75Z"/></g></g></svg>