<svg xmlns="http://www.w3.org/2000/svg" viewBox="0 0 74 88"><title>Asset 2=</title><g id="Layer_2" data-name="Layer 2"><g id="Layer_1-2" data-name="Layer 1"><path d="M1.81,0A2,2,0,0,0,0,2V86a2,2,0,0,0,2,2,2.17,2.17,0,0,0,.79-.18L17,81.6V86a2,2,0,0,0,2,2,1.88,1.88,0,0,0,.74-.15L35,81.57V86a2,2,0,0,0,2,2,1.88,1.88,0,0,0,.74-.15l35-14A2,2,0,0,0,74,72V16a2,2,0,0,0-1.25-1.88l-35-14a2,2,0,0,0-1-.12A2,2,0,0,0,35,2v4.4L19.75.14A2,2,0,0,0,17,2V6.39L2.81.17a2,2,0,0,0-1-.15ZM39,5,70,17.36V70.64L39,83ZM21,30.07V5l14,5.78V77.23L21,83V38m-4,0V77.26L4,83V5.05l13,5.68V30"/></g></g></svg>