<?xml version="1.0" encoding="utf-8"?>
<!-- Generator: Adobe Illustrator 24.0.2, SVG Export Plug-In . SVG Version: 6.00 Build 0)  -->
<svg version="1.1" id="Layer_1" xmlns="http://www.w3.org/2000/svg" xmlns:xlink="http://www.w3.org/1999/xlink" x="0px" y="0px"
	 viewBox="0 0 1792 1792" style="enable-background:new 0 0 1792 1792;" xml:space="preserve">
<path d="M1792,341.1c-50.8,74.3-112.2,137.6-184.2,189.9c0.8,10.6,1.1,26.5,1.1,47.8c0,98.5-14.4,196.9-43.2,295.1
	c-28.8,98.2-72.6,192.4-131.3,282.6c-58.7,90.2-128.7,170-209.8,239.4c-81.1,69.4-178.9,124.7-293.4,166s-236.9,62-367.3,62
	c-205.4,0-393.4-55-564-164.9c26.5,3,56.1,4.5,88.7,4.5c170.6,0,322.5-52.3,456-156.9c-79.6-1.5-150.8-26-213.8-73.3
	c-62.9-47.4-106.1-107.8-129.6-181.4c25,3.8,48.1,5.7,69.4,5.7c32.6,0,64.8-4.2,96.6-12.5c-84.9-17.4-155.2-59.7-210.9-126.8
	s-83.6-145-83.6-233.7V680c51.5,28.8,106.9,44.3,166,46.6c-50-33.4-89.8-76.9-119.4-130.8S75,483.6,75,420.7
	c0-66.7,16.7-128.5,50-185.3c91.7,112.9,203.3,203.3,334.9,271.2s272.3,105.6,422.4,113.1c-6.1-28.8-9.1-56.9-9.1-84.1
	c0-101.6,35.8-188.2,107.5-259.8c71.6-71.6,158.2-107.5,259.8-107.5c106.1,0,195.6,38.7,268.3,116c82.6-15.9,160.3-45.5,233.1-88.7
	c-28,87.2-81.9,154.6-161.5,202.4C1651,390.4,1721.5,371.4,1792,341.1z"/>
</svg>
